<svg width="70" height="71" viewBox="0 0 70 71" fill="none" xmlns="http://www.w3.org/2000/svg">
<path fill-rule="evenodd" clip-rule="evenodd" d="M66.5377 39.8843C68.3812 40.4656 69.4045 42.4313 68.8232 44.2748L67.9509 47.0414L66.7824 49.8626L65.3723 52.5712L63.7316 55.1466L61.8727 57.5692L59.8097 59.8206L57.5583 61.8836L55.1357 63.7426L52.5602 65.3833L49.9872 66.7227C48.2726 67.6153 46.1591 66.9489 45.2665 65.2343C44.3739 63.5197 45.0403 61.4062 46.7549 60.5137L49.0569 59.3153L51.1168 58.003L53.0545 56.5162L54.8552 54.8662L56.5053 53.0654L57.9921 51.1277L59.3044 49.0678L60.4322 46.9014L61.3668 44.6449L62.1472 42.1698C62.7285 40.3263 64.6942 39.303 66.5377 39.8843Z" fill="white"/>
<path fill-rule="evenodd" clip-rule="evenodd" d="M66.8382 33.0175C64.951 33.4359 63.082 32.2452 62.6636 30.358L62.1019 27.8243L61.3675 25.495L60.4328 23.2385L59.305 21.0721L57.9928 19.0122L56.5059 17.0745L54.8559 15.2738L53.0551 13.6237L51.1174 12.1369L49.0576 10.8246L46.8911 9.69679L44.6346 8.76213L42.3053 8.02768L39.9208 7.49906L37.4993 7.18026L35.0592 7.07372L32.6192 7.18026L30.1977 7.49905L27.8132 8.02769L25.4838 8.76212L23.2273 9.6968L21.0609 10.8246L19.001 12.1369L17.0633 13.6237L15.2626 15.2738L13.6125 17.0745L12.1257 19.0122L10.8134 21.072L9.68562 23.2385L8.75098 25.4949L8.01652 27.8243L7.4879 30.2088L7.1691 32.6303L7.06256 35.0704L7.16909 37.5105L7.4879 39.932L8.01653 42.3165L8.75096 44.6458L9.68562 46.9023L10.8134 49.0687L12.1257 51.1286L13.6125 53.0663L15.2626 54.867L17.0633 56.5171L19.001 58.0039L21.0609 59.3162L23.2273 60.444L25.4838 61.3786L27.8132 62.1131L30.1977 62.6417L32.6191 62.9605L35.2119 63.0737C37.1431 63.158 38.6402 64.7919 38.5559 66.723C38.4716 68.6542 36.8377 70.1514 34.9066 70.0671L32.0085 69.9405L28.981 69.5419L25.9997 68.881L23.0874 67.9628L20.2662 66.7942L17.5576 65.3842L14.9821 63.7434L12.5595 61.8845L10.3081 59.8215L8.24512 57.5701L6.38617 55.1475L4.74545 52.572L3.33543 49.8634L2.16686 47.0422L1.24861 44.1299L0.587671 41.1487L0.189089 38.1211L0.055895 35.0704L0.189099 32.0196L0.587677 28.9921L1.24861 26.0109L2.16685 23.0985L3.33543 20.2773L4.74545 17.5687L6.38618 14.9933L8.24512 12.5707L10.3081 10.3193L12.5595 8.25628L14.9821 6.39733L17.5576 4.75661L20.2662 3.34659L23.0874 2.17801L25.9997 1.25977L28.981 0.598834L32.0085 0.200251L35.0592 0.0670539L38.11 0.200251L41.1375 0.598833L44.1188 1.25976L47.0311 2.17801L49.8523 3.34659L52.5609 4.75661L55.1363 6.39734L57.5589 8.25628L59.8103 10.3193L61.8733 12.5707L63.7323 14.9933L65.373 17.5687L66.783 20.2773L67.9516 23.0985L68.8698 26.0109L69.4977 28.8429C69.9161 30.7301 68.7254 32.5991 66.8382 33.0175Z" fill="#C7C7CC"/>
</svg>
